<?xml version="1.0" encoding="UTF-8" standalone="no"?>
<!DOCTYPE svg PUBLIC "-//W3C//DTD SVG 1.1//EN"
 "http://www.w3.org/Graphics/SVG/1.1/DTD/svg11.dtd">
<!-- Generated by graphviz version 14.0.1 (20251006.0113)
 -->
<!-- Title: src/hal/Motor.cpp Pages: 1 -->
<svg width="290pt" height="138pt"
 viewBox="0.00 0.00 290.00 138.00" xmlns="http://www.w3.org/2000/svg" xmlns:xlink="http://www.w3.org/1999/xlink">

<svg id="main" version="1.1" xmlns="http://www.w3.org/2000/svg" xmlns:xlink="http://www.w3.org/1999/xlink" xml:space="preserve">

<style type="text/css"><![CDATA[
.node, .edge {opacity: 0.7;}
.node.selected, .edge.selected {opacity: 1;}
.edge:hover path { stroke: red; }
.edge:hover polygon { stroke: red; fill: red; }
]]></style>
<script type="application/ecmascript" xlink:href="../../svg.min.js"/>
<svg id="graph" class="graph">
<g id="graph0" class="graph" transform="scale(1 1) rotate(0) translate(4 133.75)">
<title>src/hal/Motor.cpp</title>
<!-- Node1 -->
<g id="Node000001" class="node">
<title>Node1</title>
<g id="a_Node000001"><a xlink:title="Low&#45;Level Treiber für DC&#45;Motoren mittels Software&#45;PWM.">
<polygon fill="#999999" stroke="#666666" points="182.5,-129.75 91.5,-129.75 91.5,-110.5 182.5,-110.5 182.5,-129.75"/>
<text xml:space="preserve" text-anchor="middle" x="137" y="-116.25" font-family="Helvetica,sans-Serif" font-size="10.00">src/hal/Motor.cpp</text>
</a>
</g>
</g>
<!-- Node2 -->
<g id="Node000002" class="node">
<title>Node2</title>
<g id="a_Node000002"><a xlink:href="../../df/ddf/Motor_8h.html" target="_top" xlink:title="Schnittstellendefinition (API) für den Motor&#45;Treiber.">
<polygon fill="white" stroke="#666666" points="64,-74.5 0,-74.5 0,-55.25 64,-55.25 64,-74.5"/>
<text xml:space="preserve" text-anchor="middle" x="32" y="-61" font-family="Helvetica,sans-Serif" font-size="10.00">hal/Motor.h</text>
</a>
</g>
</g>
<!-- Node1&#45;&gt;Node2 -->
<g id="edge1_Node000001_Node000002" class="edge">
<title>Node1&#45;&gt;Node2</title>
<g id="a_edge1_Node000001_Node000002"><a xlink:title=" ">
<path fill="none" stroke="#63b8ff" d="M119.19,-110.09C102.97,-101.87 78.76,-89.59 59.97,-80.06"/>
<polygon fill="#63b8ff" stroke="#63b8ff" points="61.75,-77.04 51.25,-75.64 58.58,-83.28 61.75,-77.04"/>
</a>
</g>
</g>
<!-- Node4 -->
<g id="Node000004" class="node">
<title>Node4</title>
<g id="a_Node000004"><a xlink:href="../../d5/de3/Config_8h.html" target="_top" xlink:title="Zentrale Konfigurationsparameter und Systemkonstanten.">
<polygon fill="white" stroke="#666666" points="196.38,-74.5 143.62,-74.5 143.62,-55.25 196.38,-55.25 196.38,-74.5"/>
<text xml:space="preserve" text-anchor="middle" x="170" y="-61" font-family="Helvetica,sans-Serif" font-size="10.00">Config.h</text>
</a>
</g>
</g>
<!-- Node1&#45;&gt;Node4 -->
<g id="edge3_Node000001_Node000004" class="edge">
<title>Node1&#45;&gt;Node4</title>
<g id="a_edge3_Node000001_Node000004"><a xlink:title=" ">
<path fill="none" stroke="#63b8ff" d="M142.45,-110.33C146.77,-103.36 152.96,-93.37 158.38,-84.62"/>
<polygon fill="#63b8ff" stroke="#63b8ff" points="161.34,-86.49 163.64,-76.15 155.39,-82.8 161.34,-86.49"/>
</a>
</g>
</g>
<!-- Node6 -->
<g id="Node000006" class="node">
<title>Node6</title>
<g id="a_Node000006"><a xlink:href="../../d7/d67/Pins_8h.html" target="_top" xlink:title="Zentrale Definition aller GPIO Pin&#45;Zuordnungen.">
<polygon fill="white" stroke="#666666" points="125.88,-74.5 82.12,-74.5 82.12,-55.25 125.88,-55.25 125.88,-74.5"/>
<text xml:space="preserve" text-anchor="middle" x="104" y="-61" font-family="Helvetica,sans-Serif" font-size="10.00">Pins.h</text>
</a>
</g>
</g>
<!-- Node1&#45;&gt;Node6 -->
<g id="edge5_Node000001_Node000006" class="edge">
<title>Node1&#45;&gt;Node6</title>
<g id="a_edge5_Node000001_Node000006"><a xlink:title=" ">
<path fill="none" stroke="#63b8ff" d="M131.55,-110.33C127.23,-103.36 121.04,-93.37 115.62,-84.62"/>
<polygon fill="#63b8ff" stroke="#63b8ff" points="118.61,-82.8 110.36,-76.15 112.66,-86.49 118.61,-82.8"/>
</a>
</g>
</g>
<!-- Node7 -->
<g id="Node000007" class="node">
<title>Node7</title>
<g id="a_Node000007"><a xlink:title=" ">
<polygon fill="#e0e0e0" stroke="#999999" points="281.5,-74.5 214.5,-74.5 214.5,-55.25 281.5,-55.25 281.5,-74.5"/>
<text xml:space="preserve" text-anchor="middle" x="248" y="-61" font-family="Helvetica,sans-Serif" font-size="10.00">SoftPWM.h</text>
</a>
</g>
</g>
<!-- Node1&#45;&gt;Node7 -->
<g id="edge7_Node000001_Node000007" class="edge">
<title>Node1&#45;&gt;Node7</title>
<g id="a_edge7_Node000001_Node000007"><a xlink:title=" ">
<path fill="none" stroke="#63b8ff" d="M155.83,-110.09C173.05,-101.83 198.8,-89.48 218.71,-79.93"/>
<polygon fill="#63b8ff" stroke="#63b8ff" points="220.21,-83.09 227.71,-75.61 217.18,-76.78 220.21,-83.09"/>
</a>
</g>
</g>
<!-- Node3 -->
<g id="Node000003" class="node">
<title>Node3</title>
<g id="a_Node000003"><a xlink:title=" ">
<polygon fill="#e0e0e0" stroke="#999999" points="94.62,-19.25 37.38,-19.25 37.38,0 94.62,0 94.62,-19.25"/>
<text xml:space="preserve" text-anchor="middle" x="66" y="-5.75" font-family="Helvetica,sans-Serif" font-size="10.00">Arduino.h</text>
</a>
</g>
</g>
<!-- Node2&#45;&gt;Node3 -->
<g id="edge2_Node000002_Node000003" class="edge">
<title>Node2&#45;&gt;Node3</title>
<g id="a_edge2_Node000002_Node000003"><a xlink:title=" ">
<path fill="none" stroke="#63b8ff" d="M37.61,-55.08C42.12,-48.03 48.59,-37.9 54.21,-29.08"/>
<polygon fill="#63b8ff" stroke="#63b8ff" points="57.02,-31.2 59.45,-20.88 51.12,-27.43 57.02,-31.2"/>
</a>
</g>
</g>
<!-- Node5 -->
<g id="Node000005" class="node">
<title>Node5</title>
<g id="a_Node000005"><a xlink:title=" ">
<polygon fill="#e0e0e0" stroke="#999999" points="194.12,-19.25 145.88,-19.25 145.88,0 194.12,0 194.12,-19.25"/>
<text xml:space="preserve" text-anchor="middle" x="170" y="-5.75" font-family="Helvetica,sans-Serif" font-size="10.00">stdint.h</text>
</a>
</g>
</g>
<!-- Node4&#45;&gt;Node5 -->
<g id="edge4_Node000004_Node000005" class="edge">
<title>Node4&#45;&gt;Node5</title>
<g id="a_edge4_Node000004_Node000005"><a xlink:title=" ">
<path fill="none" stroke="#63b8ff" d="M170,-55.08C170,-48.57 170,-39.42 170,-31.12"/>
<polygon fill="#63b8ff" stroke="#63b8ff" points="173.5,-31.12 170,-21.12 166.5,-31.12 173.5,-31.12"/>
</a>
</g>
</g>
<!-- Node6&#45;&gt;Node3 -->
<g id="edge6_Node000006_Node000003" class="edge">
<title>Node6&#45;&gt;Node3</title>
<g id="a_edge6_Node000006_Node000003"><a xlink:title=" ">
<path fill="none" stroke="#63b8ff" d="M97.73,-55.08C92.64,-47.96 85.3,-37.68 78.97,-28.8"/>
<polygon fill="#63b8ff" stroke="#63b8ff" points="81.95,-26.95 73.29,-20.84 76.25,-31.01 81.95,-26.95"/>
</a>
</g>
</g>
</g>
</svg>
</svg>

<style type='text/css'>
<![CDATA[
[data-mouse-over-selected='false'] { opacity: 0.7; }
[data-mouse-over-selected='true']  { opacity: 1.0; }
]]>
</style>
<script type="application/ecmascript"><![CDATA[
document.addEventListener('DOMContentLoaded', (event) => {
  highlightEdges();
  highlightAdjacentNodes();
});
]]></script>
</svg>
