<?xml version="1.0" encoding="UTF-8" standalone="no"?>
<!DOCTYPE svg PUBLIC "-//W3C//DTD SVG 1.1//EN"
 "http://www.w3.org/Graphics/SVG/1.1/DTD/svg11.dtd">
<!-- Generated by graphviz version 14.0.1 (20251006.0113)
 -->
<!-- Title: HAL::Motor::stop Pages: 1 -->
<svg width="388pt" height="64pt"
 viewBox="0.00 0.00 388.00 64.00" xmlns="http://www.w3.org/2000/svg" xmlns:xlink="http://www.w3.org/1999/xlink">
<g id="graph0" class="graph" transform="scale(1 1) rotate(0) translate(4 60.25)">
<title>HAL::Motor::stop</title>
<!-- Node1 -->
<g id="Node000001" class="node">
<title>Node1</title>
<g id="a_Node000001"><a xlink:title="Wrapper für sofortigen Stopp.">
<polygon fill="#999999" stroke="#666666" points="379.5,-37.25 288.5,-37.25 288.5,-18 379.5,-18 379.5,-37.25"/>
<text xml:space="preserve" text-anchor="middle" x="334" y="-23.75" font-family="Helvetica,sans-Serif" font-size="10.00">HAL::Motor::stop</text>
</a>
</g>
</g>
<!-- Node2 -->
<g id="Node000002" class="node">
<title>Node2</title>
<g id="a_Node000002"><a xlink:href="../../d3/d08/namespaceHAL_1_1Motor.html#a5fb1fd0dce969911b6ce80cab03dd341" target="_top" xlink:title="Initialisiert die PWM&#45;Timer und Pin&#45;Zustände.">
<polygon fill="white" stroke="#666666" points="233.38,-56.25 148.38,-56.25 148.38,-37 233.38,-37 233.38,-56.25"/>
<text xml:space="preserve" text-anchor="middle" x="190.88" y="-42.75" font-family="Helvetica,sans-Serif" font-size="10.00">HAL::Motor::init</text>
</a>
</g>
</g>
<!-- Node1&#45;&gt;Node2 -->
<g id="edge1_Node000001_Node000002" class="edge">
<title>Node1&#45;&gt;Node2</title>
<g id="a_edge1_Node000001_Node000002"><a xlink:title=" ">
<path fill="none" stroke="#63b8ff" d="M277.03,-35.16C262.63,-37.1 247.39,-39.15 233.84,-40.98"/>
<polygon fill="#63b8ff" stroke="#63b8ff" points="277.4,-38.64 286.85,-33.84 276.47,-31.7 277.4,-38.64"/>
</a>
</g>
</g>
<!-- Node4 -->
<g id="Node000004" class="node">
<title>Node4</title>
<g id="a_Node000004"><a xlink:href="../../d6/da9/namespaceLogic_1_1Motion.html#a021c49b4ee24ea819240e19e367da45d" target="_top" xlink:title="Stoppt alle Motorbewegungen.">
<polygon fill="white" stroke="#666666" points="252.5,-19.25 129.25,-19.25 129.25,0 252.5,0 252.5,-19.25"/>
<text xml:space="preserve" text-anchor="middle" x="190.88" y="-5.75" font-family="Helvetica,sans-Serif" font-size="10.00">Logic::Motion::stopMove</text>
</a>
</g>
</g>
<!-- Node1&#45;&gt;Node4 -->
<g id="edge3_Node000001_Node000004" class="edge">
<title>Node1&#45;&gt;Node4</title>
<g id="a_edge3_Node000001_Node000004"><a xlink:title=" ">
<path fill="none" stroke="#63b8ff" d="M276.94,-20.47C268.99,-19.46 260.78,-18.41 252.75,-17.39"/>
<polygon fill="#63b8ff" stroke="#63b8ff" points="276.48,-23.94 286.85,-21.74 277.37,-17 276.48,-23.94"/>
</a>
</g>
</g>
<!-- Node3 -->
<g id="Node000003" class="node">
<title>Node3</title>
<g id="a_Node000003"><a xlink:href="../../d6/da9/namespaceLogic_1_1Motion.html#a1c196b6f6c23b9116709afdf04b7e32d" target="_top" xlink:title="Initialisiert die Bewegungslogik und die zugrundeliegende Motor&#45;Hardware.">
<polygon fill="white" stroke="#666666" points="93.25,-56.25 0,-56.25 0,-37 93.25,-37 93.25,-56.25"/>
<text xml:space="preserve" text-anchor="middle" x="46.62" y="-42.75" font-family="Helvetica,sans-Serif" font-size="10.00">Logic::Motion::init</text>
</a>
</g>
</g>
<!-- Node2&#45;&gt;Node3 -->
<g id="edge2_Node000002_Node000003" class="edge">
<title>Node2&#45;&gt;Node3</title>
<g id="a_edge2_Node000002_Node000003"><a xlink:title=" ">
<path fill="none" stroke="#63b8ff" d="M136.86,-46.62C122.69,-46.62 107.48,-46.62 93.71,-46.62"/>
<polygon fill="#63b8ff" stroke="#63b8ff" points="136.45,-50.13 146.45,-46.63 136.45,-43.13 136.45,-50.13"/>
</a>
</g>
</g>
</g>
</svg>
